HIERARCHY
ROOT hip
{
  OFFSET 0 0 0
  CHANNELS 6 Xposition Yposition Zposition Zrotation Yrotation Xrotation
  JOINT abdomen
  {
    OFFSET 0 20.6881 -0.73152
    CHANNELS 3 Zrotation Xrotation Yrotation
    JOINT chest
    {
      OFFSET 0 11.7043 -0.48768
      CHANNELS 3 Zrotation Xrotation Yrotation
      JOINT neck
      {
        OFFSET 0 22.1894 -2.19456
        CHANNELS 3 Zrotation Xrotation Yrotation
        JOINT head
        {
          OFFSET -0.24384 7.07133 1.2192
          CHANNELS 3 Zrotation Xrotation Yrotation
          JOINT leftEye
          {
            OFFSET 4.14528 8.04674 8.04672
            CHANNELS 3 Zrotation Xrotation Yrotation
            End Site
            {
              OFFSET 1 0 0
            }
          }
          JOINT rightEye
          {
            OFFSET -3.6576 8.04674 8.04672
            CHANNELS 3 Zrotation Xrotation Yrotation
            End Site
            {
              OFFSET 1 0 0
            }
          }
        }
      }
      JOINT rCollar
      {
        OFFSET -2.68224 19.2634 -4.8768
        CHANNELS 3 Zrotation Xrotation Yrotation
        JOINT rShldr
        {
          OFFSET -8.77824 -1.95073 1.46304
          CHANNELS 3 Zrotation Xrotation Yrotation
          JOINT rForeArm
          {
            OFFSET -28.1742 -1.7115 0.48768
            CHANNELS 3 Zrotation Xrotation Yrotation
            JOINT rHand
            {
              OFFSET -22.5879 0.773209 7.07136
              CHANNELS 3 Zrotation Xrotation Yrotation
              JOINT rThumb1
              {
                OFFSET -1.2192 -0.487915 3.41376
                CHANNELS 3 Zrotation Xrotation Yrotation
                JOINT rThumb2
                {
                  OFFSET -3.37035 -0.52449 3.41376
                  CHANNELS 3 Zrotation Xrotation Yrotation
                  End Site
                  {
                    OFFSET -1.78271 -1.18214 1.43049
                  }
                }
              }
              JOINT rIndex1
              {
                OFFSET -7.75947 0.938293 5.60832
                CHANNELS 3 Zrotation Xrotation Yrotation
                JOINT rIndex2
                {
                  OFFSET -2.54057 -0.884171 1.56538
                  CHANNELS 3 Zrotation Xrotation Yrotation
                  End Site
                  {
                    OFFSET -1.62519 -0.234802 1.16502
                  }
                }
              }
              JOINT rMid1
              {
                OFFSET -8.24714 1.18213 3.41376
                CHANNELS 3 Zrotation Xrotation Yrotation
                JOINT rMid2
                {
                  OFFSET -3.10165 -0.590103 1.0647
                  CHANNELS 3 Zrotation Xrotation Yrotation
                  End Site
                  {
                    OFFSET -2.48547 -0.328903 0.83742
                  }
                }
              }
              JOINT rRing1
              {
                OFFSET -8.82822 0.546677 1.51678
                CHANNELS 3 Zrotation Xrotation Yrotation
                JOINT rRing2
                {
                  OFFSET -2.60934 -0.819778 -0.0198488
                  CHANNELS 3 Zrotation Xrotation Yrotation
                  End Site
                  {
                    OFFSET -2.33842 -0.294052 0.168128
                  }
                }
              }
              JOINT rPinky1
              {
                OFFSET -8.27202 -0.0477905 -0.4584
                CHANNELS 3 Zrotation Xrotation Yrotation
                JOINT rPinky2
                {
                  OFFSET -1.82734 -0.647385 -0.700984
                  CHANNELS 3 Zrotation Xrotation Yrotation
                  End Site
                  {
                    OFFSET -1.69225 -0.51767 -0.607171
                  }
                }
              }
            }
          }
        }
      }
      JOINT lCollar
      {
        OFFSET 2.68224 19.2634 -4.8768
        CHANNELS 3 Zrotation Xrotation Yrotation
        JOINT lShldr
        {
          OFFSET 8.77824 -1.95073 1.46304
          CHANNELS 3 Zrotation Xrotation Yrotation
          JOINT lForeArm
          {
            OFFSET 28.1742 -1.7115 0.48768
            CHANNELS 3 Zrotation Xrotation Yrotation
            JOINT lHand
            {
              OFFSET 22.5879 0.773209 7.07136
              CHANNELS 3 Zrotation Xrotation Yrotation
              JOINT lThumb1
              {
                OFFSET 1.2192 -0.487915 3.41376
                CHANNELS 3 Zrotation Xrotation Yrotation
                JOINT lThumb2
                {
                  OFFSET 3.37035 -0.52449 3.41376
                  CHANNELS 3 Zrotation Xrotation Yrotation
                  End Site
                  {
                    OFFSET 1.78271 -1.18214 1.43049
                  }
                }
              }
              JOINT lIndex1
              {
                OFFSET 7.75947 0.938293 5.60832
                CHANNELS 3 Zrotation Xrotation Yrotation
                JOINT lIndex2
                {
                  OFFSET 2.54057 -0.884171 1.56538
                  CHANNELS 3 Zrotation Xrotation Yrotation
                  End Site
                  {
                    OFFSET 1.62519 -0.234802 1.16502
                  }
                }
              }
              JOINT lMid1
              {
                OFFSET 8.24714 1.18213 3.41376
                CHANNELS 3 Zrotation Xrotation Yrotation
                JOINT lMid2
                {
                  OFFSET 3.10165 -0.590103 1.0647
                  CHANNELS 3 Zrotation Xrotation Yrotation
                  End Site
                  {
                    OFFSET 2.48547 -0.328903 0.83742
                  }
                }
              }
              JOINT lRing1
              {
                OFFSET 8.82822 0.546677 1.51678
                CHANNELS 3 Zrotation Xrotation Yrotation
                JOINT lRing2
                {
                  OFFSET 2.60934 -0.819778 -0.0198488
                  CHANNELS 3 Zrotation Xrotation Yrotation
                  End Site
                  {
                    OFFSET 2.33842 -0.294052 0.168128
                  }
                }
              }
              JOINT lPinky1
              {
                OFFSET 8.27202 -0.0477905 -0.4584
                CHANNELS 3 Zrotation Xrotation Yrotation
                JOINT lPinky2
                {
                  OFFSET 1.82734 -0.647385 -0.700984
                  CHANNELS 3 Zrotation Xrotation Yrotation
                  End Site
                  {
                    OFFSET 1.69225 -0.51767 -0.607171
                  }
                }
              }
            }
          }
        }
      }
    }
  }
  JOINT rButtock
  {
    OFFSET -8.77824 4.35084 1.2192
    CHANNELS 3 Zrotation Xrotation Yrotation
    JOINT rThigh
    {
      OFFSET 0 -1.70687 -2.19456
      CHANNELS 3 Zrotation Xrotation Yrotation
      JOINT rShin
      {
        OFFSET 0 -36.8199 0.73152
        CHANNELS 3 Zrotation Xrotation Yrotation
        JOINT rFoot
        {
          OFFSET 0.73152 -45.1104 -5.12064
          CHANNELS 3 Zrotation Xrotation Yrotation
          End Site
          {
            OFFSET -1.1221 -3.69964 12.103
          }
        }
      }
    }
  }
  JOINT lButtock
  {
    OFFSET 8.77824 4.35084 1.2192
    CHANNELS 3 Zrotation Xrotation Yrotation
    JOINT lThigh
    {
      OFFSET 0 -1.70687 -2.19456
      CHANNELS 3 Zrotation Xrotation Yrotation
      JOINT lShin
      {
        OFFSET 0 -36.8199 0.73152
        CHANNELS 3 Zrotation Xrotation Yrotation
        JOINT lFoot
        {
          OFFSET -0.73152 -45.1104 -5.12064
          CHANNELS 3 Zrotation Xrotation Yrotation
          End Site
          {
            OFFSET 1.1221 -3.69964 12.103
          }
        }
      }
    }
  }
}
MOTION
Frames:	7
Frame Time:	0.00833333
137.808 82.8794 63.1987 -179.359 8.4096 -167.535 1.59253 -1.03345 2.37907 8.59264 -24.3503 3.65239 5.91897 5.8944 2.01857 -21.9407 24.8557 19.8809 -0.0 0.0 0.0 -0.0 0.0 0.0 -6.41753e-14 1.45128e-13 -1.6897e-13 88.9323 50.5622 -34.7721 -14.4119 -7.29132 26.3876 -0.205894 -12.8185 -1.83251 1.15245e-09 -8.99083e-11 -8.46313e-10 1.99545e-09 -1.61013e-10 -1.45265e-09 1.15245e-09 -8.99046e-11 -8.46318e-10 7.73091 5.47488 0.417314 1.15244e-09 -8.99024e-11 -8.4631e-10 2.90554 0.965183 0.102902 1.15245e-09 -8.99022e-11 -8.46312e-10 10.2786 0.731801 0.0259123 1.15244e-09 -8.99012e-11 -8.46306e-10 2.22167 -0.733487 -0.20892 -6.41523e-14 1.45147e-13 -1.69062e-13 -86.0308 13.0767 31.6766 13.9556 -6.91848 -25.4652 0.0290763 4.87276 -0.686483 1.81357e-09 1.87561e-09 1.4902e-09 3.14573e-09 3.24635e-09 2.56827e-09 1.81357e-09 1.87561e-09 1.4902e-09 -7.73091 5.47488 -0.417314 1.81357e-09 1.87561e-09 1.4902e-09 -2.90554 0.965183 -0.102902 1.81356e-09 1.87561e-09 1.4902e-09 -10.2786 0.731801 -0.0259123 1.81357e-09 1.87561e-09 1.4902e-09 -2.22167 -0.733487 0.20892 -2.03217e-16 0.0 -3.88251e-19 13.846 2.77732 15.1854 -0.0472271 11.485 -0.106414 -4.585 -20.2789 -18.159 2.03217e-16 0.0 3.88251e-19 -12.0583 -35.4808 -22.3185 -0.0225144 17.3467 -0.936592 5.11662 -15.1937 21.5585
137.693 82.9103 61.3023 -179.472 8.2727 -167.802 1.62267 -1.05121 2.33461 8.43529 -24.309 3.6008 5.86625 5.95651 1.99538 -22.0975 25.0484 20.1005 -0.0 0.0 0.0 -0.0 0.0 0.0 -7.63562e-14 1.52653e-13 -1.97145e-13 88.587 49.7933 -34.8403 -14.3456 -7.2368 26.2522 -0.205276 -12.8005 -1.82985 8.06983e-10 8.7144e-11 -6.68238e-10 1.39572e-09 1.47123e-10 -1.14699e-09 8.0698e-10 8.7148e-11 -6.68244e-10 7.73091 5.47488 0.417314 8.06976e-10 8.71503e-11 -6.68235e-10 2.90554 0.965183 0.102902 8.06983e-10 8.71504e-11 -6.68235e-10 10.2786 0.731801 0.0259123 8.06973e-10 8.71516e-11 -6.68228e-10 2.22167 -0.733487 -0.20892 -7.63156e-14 1.5268e-13 -1.97244e-13 -86.0304 13.18 31.6006 13.9611 -6.92309 -25.4759 0.0312981 5.04341 -0.710659 2.32574e-09 2.08731e-09 1.5321e-09 4.03249e-09 3.61224e-09 2.63785e-09 2.32574e-09 2.08731e-09 1.5321e-09 -7.73091 5.47488 -0.417314 2.32575e-09 2.08731e-09 1.5321e-09 -2.90554 0.965183 -0.102902 2.32573e-09 2.08731e-09 1.5321e-09 -10.2786 0.731801 -0.0259123 2.32575e-09 2.08731e-09 1.53209e-09 -2.22167 -0.733487 0.20892 -2.03217e-16 0.0 -3.88251e-19 12.8602 2.72534 12.9773 -0.03612 13.2704 0.0243004 -3.54281 -17.6642 -16.5692 2.03217e-16 0.0 3.88251e-19 -12.646 -35.2372 -21.1725 -0.00644913 19.1049 -0.970768 4.47151 -14.2327 20.4507
137.581 82.945 59.3996 -179.431 8.0894 -168.192 1.71945 -0.948601 2.2663 8.28728 -24.3321 3.54934 5.88969 6.14541 1.91059 -22.4188 25.2546 20.3168 -0.0 0.0 0.0 -0.0 0.0 0.0 -4.1873e-14 1.09317e-13 -1.14203e-13 88.1443 48.972 -34.8349 -14.2699 -7.17435 26.0989 -0.203674 -12.7511 -1.82254 2.19546e-10 2.10146e-10 -1.74811e-10 3.77135e-10 3.63329e-10 -2.98654e-10 2.19544e-10 2.10148e-10 -1.74819e-10 7.73091 5.47488 0.417314 2.1954e-10 2.10149e-10 -1.74808e-10 2.90554 0.965183 0.102902 2.19547e-10 2.10149e-10 -1.74809e-10 10.2786 0.731801 0.0259123 2.19536e-10 2.1015e-10 -1.74801e-10 2.22167 -0.733487 -0.20892 -4.18587e-14 1.09346e-13 -1.14345e-13 -86.2545 13.5791 31.6457 14.0245 -6.97466 -25.6025 0.0297413 4.92387 -0.693724 1.84442e-09 1.33163e-09 1.10679e-09 3.19776e-09 2.30447e-09 1.90425e-09 1.84442e-09 1.33163e-09 1.1068e-09 -7.73091 5.47488 -0.417314 1.84443e-09 1.33163e-09 1.10679e-09 -2.90554 0.965183 -0.102902 1.84442e-09 1.33163e-09 1.1068e-09 -10.2786 0.731801 -0.0259123 1.84443e-09 1.33163e-09 1.10679e-09 -2.22167 -0.733487 0.20892 -2.03217e-16 0.0 -3.88251e-19 11.6429 2.47947 10.3973 -0.00824476 15.4816 0.150763 -2.41188 -13.7501 -15.1898 2.03217e-16 0.0 3.88251e-19 -13.0964 -34.3685 -20.0276 0.00653907 20.3803 -0.967313 3.97258 -14.0485 18.7591
137.418 82.9983 57.5339 -179.546 7.8708 -168.662 1.9153 -0.748297 2.17821 8.12888 -24.3992 3.49303 5.9504 6.41589 1.77793 -22.851 25.4807 20.5293 -0.0 0.0 0.0 -0.0 0.0 0.0 2.58503e-14 2.86117e-14 4.12571e-14 87.6127 48.1049 -34.7767 -14.1969 -7.11448 25.9509 -0.201819 -12.6933 -1.814 -6.14687e-10 3.32526e-10 5.68557e-10 -1.06882e-09 5.79933e-10 9.79427e-10 -6.14687e-10 3.32526e-10 5.68549e-10 7.73091 5.47488 0.417314 -6.1469e-10 3.32526e-10 5.6856e-10 2.90554 0.965183 0.102902 -6.14684e-10 3.32525e-10 5.68559e-10 10.2786 0.731801 0.0259123 -6.14697e-10 3.32526e-10 5.68566e-10 2.22167 -0.733487 -0.20892 2.58104e-14 2.86379e-14 4.10459e-14 -86.6371 14.1917 31.7644 14.1298 -7.06039 -25.8143 0.0263247 4.64215 -0.653842 7.07277e-10 -9.54001e-11 3.36437e-10 1.22653e-09 -1.64901e-10 5.77086e-10 7.07274e-10 -9.54012e-11 3.36443e-10 -7.73091 5.47488 -0.417314 7.0728e-10 -9.54015e-11 3.36432e-10 -2.90554 0.965183 -0.102902 7.07269e-10 -9.54004e-11 3.36437e-10 -10.2786 0.731801 -0.0259123 7.07281e-10 -9.5399e-11 3.3643e-10 -2.22167 -0.733487 0.20892 -2.03217e-16 0.0 -3.88251e-19 10.2216 2.02061 7.44259 0.0254305 18.0735 0.284317 -1.27465 -8.75762 -14.0015 2.03217e-16 0.0 3.88251e-19 -13.4589 -33.0431 -19.0907 0.0164746 21.3058 -0.942456 3.63384 -14.5974 16.7063
137.124 83.1139 55.695 -179.844 7.6746 -169.261 2.03127 -0.471652 2.07672 7.98545 -24.4734 3.42891 6.02202 6.70371 1.63916 -23.2745 25.6864 20.7132 -0.0 0.0 0.0 -0.0 0.0 0.0 9.59655e-14 -5.36828e-14 2.00788e-13 87.0028 47.2378 -34.6238 -14.1347 -7.06372 25.8252 -0.200864 -12.6636 -1.80962 -1.37099e-09 4.19413e-10 1.27632e-09 -2.37955e-09 7.34828e-10 2.19644e-09 -1.37098e-09 4.1941e-10 1.27631e-09 7.73091 5.47488 0.417314 -1.37099e-09 4.19408e-10 1.27632e-09 2.90554 0.965183 0.102902 -1.37098e-09 4.19407e-10 1.27632e-09 10.2786 0.731801 0.0259123 -1.37099e-09 4.19407e-10 1.27633e-09 2.22167 -0.733487 -0.20892 9.5871e-14 -5.36615e-14 2.00514e-13 -87.0192 14.8512 31.8561 14.2437 -7.15319 -26.0448 0.0232965 4.36088 -0.614073 -5.73417e-10 -1.61024e-09 -4.24219e-10 -9.93094e-10 -2.78612e-09 -7.32364e-10 -5.73423e-10 -1.61025e-09 -4.24211e-10 -7.73091 5.47488 -0.417314 -5.73415e-10 -1.61025e-09 -4.24227e-10 -2.90554 0.965183 -0.102902 -5.73425e-10 -1.61024e-09 -4.24221e-10 -10.2786 0.731801 -0.0259123 -5.73413e-10 -1.61024e-09 -4.24228e-10 -2.22167 -0.733487 0.20892 -2.03217e-16 0.0 -3.88251e-19 8.64053 1.2525 4.49144 0.0408501 21.0249 0.409022 -0.274017 -3.25273 -13.238 2.03217e-16 0.0 3.88251e-19 -13.8755 -31.4937 -18.3326 0.0224396 21.9708 -0.89514 3.34848 -15.491 14.6324
136.781 83.227 53.8847 -180.234 7.5305 -169.935 1.88826 -0.140026 1.96819 7.88249 -24.5179 3.35409 6.07692 6.94463 1.53617 -23.5685 25.8317 20.843 -0.0 0.0 0.0 -0.0 0.0 0.0 1.37624e-13 -1.01786e-13 2.95941e-13 86.3277 46.4151 -34.3347 -14.0917 -7.02866 25.7387 -0.201948 -12.6985 -1.81477 -1.72462e-09 4.35933e-10 1.66293e-09 -2.9925e-09 7.65903e-10 2.86159e-09 -1.72461e-09 4.35929e-10 1.66292e-09 7.73091 5.47488 0.417314 -1.72462e-09 4.35926e-10 1.66293e-09 2.90554 0.965183 0.102902 -1.72461e-09 4.35924e-10 1.66293e-09 10.2786 0.731801 0.0259123 -1.72462e-09 4.35924e-10 1.66293e-09 2.22167 -0.733487 -0.20892 1.37502e-13 -1.0177e-13 2.95642e-13 -87.2363 15.3937 31.8144 14.3332 -7.2265 -26.2271 0.0221282 4.24273 -0.597379 -1.48538e-09 -2.62935e-09 -8.20418e-10 -2.57298e-09 -4.54946e-09 -1.41283e-09 -1.48538e-09 -2.62935e-09 -8.20408e-10 -7.73091 5.47488 -0.417314 -1.48538e-09 -2.62935e-09 -8.20427e-10 -2.90554 0.965183 -0.102902 -1.48538e-09 -2.62935e-09 -8.20421e-10 -10.2786 0.731801 -0.0259123 -1.48537e-09 -2.62934e-09 -8.20427e-10 -2.22167 -0.733487 0.20892 -2.03217e-16 0.0 -3.88251e-19 6.9425 0.0853902 1.92131 0.0179326 24.3142 0.508015 0.575773 2.17269 -13.0754 2.03217e-16 0.0 3.88251e-19 -14.4719 -29.9527 -17.7078 0.023879 22.4644 -0.824578 3.07724 -16.3329 12.8915
136.488 83.3242 52.2021 -180.582 7.4017 -170.555 1.35606 0.271165 1.8477 7.84576 -24.5079 3.26372 6.0964 7.13152 1.47907 -23.6723 25.8923 20.8939 -0.0 0.0 0.0 -0.0 0.0 0.0 1.32635e-13 -9.78072e-14 2.99755e-13 85.5098 45.5966 -33.8281 -14.0599 -7.00253 25.6755 -0.204451 -12.7657 -1.82479 -1.41355e-09 3.24941e-10 1.57036e-09 -2.45395e-09 5.73378e-10 2.70399e-09 -1.41354e-09 3.24938e-10 1.57035e-09 7.73091 5.47488 0.417314 -1.41355e-09 3.24935e-10 1.57036e-09 2.90554 0.965183 0.102902 -1.41354e-09 3.24932e-10 1.57036e-09 10.2786 0.731801 0.0259123 -1.41355e-09 3.24933e-10 1.57037e-09 2.22167 -0.733487 -0.20892 1.32527e-13 -9.77974e-14 2.99494e-13 -87.2291 15.762 31.5844 14.3609 -7.24808 -26.2861 0.0236681 4.40229 -0.619921 -1.88179e-09 -2.95125e-09 -6.03059e-10 -3.25809e-09 -5.10627e-09 -1.03379e-09 -1.8818e-09 -2.95126e-09 -6.03049e-10 -7.73091 5.47488 -0.417314 -1.88179e-09 -2.95126e-09 -6.03068e-10 -2.90554 0.965183 -0.102902 -1.8818e-09 -2.95125e-09 -6.03063e-10 -10.2786 0.731801 -0.0259123 -1.88179e-09 -2.95125e-09 -6.03068e-10 -2.22167 -0.733487 0.20892 -2.03217e-16 0.0 -3.88251e-19 4.94643 -1.5138 -0.210017 -0.0602454 28.1472 0.560183 1.61148 8.1915 -13.6842 2.03217e-16 0.0 3.88251e-19 -15.3297 -28.3572 -17.2128 0.0189807 22.6993 -0.714311 2.86152 -17.1038 11.5966
